<svg id="Logo" xmlns="http://www.w3.org/2000/svg" viewBox="0 0 271.21 271.21"><defs><style>.cls-1{fill:#b8c7ce;}</style></defs><title>just-logo</title><polygon class="cls-1" points="76.73 162.81 76.73 189.01 99.41 202.1 122.1 189.01 122.1 162.81 99.41 149.71 76.73 162.81"/><polygon class="cls-1" points="163.16 139.63 163.11 139.7 163.11 165.85 185.8 178.95 208.49 165.85 208.49 139.66 185.8 126.56 163.16 139.63"/><polygon class="cls-1" points="146.14 78.21 123.46 65.11 100.77 78.21 100.77 104.4 123.46 117.5 146.14 104.4 146.14 78.21"/><path class="cls-1" d="M156.89,388.63A135.61,135.61,0,1,0,292.5,524.24,135.61,135.61,0,0,0,156.89,388.63Zm33,90.86,6.94-4,6.94,4v8l-6.94,4-6.94-4Zm-98,37.4,6.94-4,6.94,4v8l-6.94,4-6.94-4Zm91.36,72.58-6.94,4-6.94-4v-8l6.94-4,6.94,4Zm57.63-28.55-33.84,19.54L178.3,563.85l-23.76,9.32v10.92L120.7,603.62,86.86,584.08V545l33.84-19.54L154.54,545v16.83l18.7-7.33V528.15L152.5,514.54,144.75,519,110.9,499.47V460.4l33.84-19.54,33.84,19.54v39.08l-15.86,9.16,15.63,10.26,28.72-16.58,33.84,19.54Z" transform="translate(-21.29 -388.63)"/></svg>