<svg id="Logo" xmlns="http://www.w3.org/2000/svg" viewBox="0 0 907.87 229.19"><defs><style>.cls-1{fill:#9aca3c;}.cls-2{fill:#fff;}.cls-3{fill:#bcbec0;}</style></defs><title>logo</title><polygon class="cls-1" points="164.65 65.69 164.65 54.4 154.88 48.76 145.1 54.4 145.1 65.69 154.88 71.33 164.65 65.69"/><polygon class="cls-1" points="135.81 209.28 135.81 197.99 126.03 192.35 116.26 197.99 116.26 209.28 126.03 214.92 135.81 209.28"/><polygon class="cls-1" points="26.7 118.36 26.7 107.07 16.93 101.43 7.16 107.07 7.16 118.36 16.93 124 26.7 118.36"/><path class="cls-1" d="M217.72,485.94l-40.45,23.35-22-14.45,22.33-12.89v-55L129.93,399.4,82.28,426.92v55l47.66,27.51,10.92-6.3,29.21,19.17v37.1l-26.33,10.33v-23.7L96.07,518.54,48.42,546.06v55L96.07,628.6l47.65-27.51V585.71l33.46-13.12L217.72,596l47.65-27.51v-55ZM98,472.87V436l31.95-18.44L161.88,436v36.89l-31.94,18.44ZM128,592,96.07,610.45,64.13,592V555.13l31.95-18.44L128,555.13Zm121.65-32.61-31.94,18.44-31.95-18.44V522.59l.07-.11,31.87-18.4,31.94,18.44Z" transform="translate(-48.42 -399.4)"/><path class="cls-2" d="M329.45,471.63v49.53H315.23V450.06h14.5l42.37,49.53V450.06h14.22v71.09H371.87Z" transform="translate(-48.42 -399.4)"/><path class="cls-2" d="M420,450.06H491v14.22H420Zm0,28.44H491v14.22H420Zm0,42.66V506.94H491v14.22Z" transform="translate(-48.42 -399.4)"/><path class="cls-2" d="M553.12,464.28H524.73l0-14.22h71.09v14.22H567.34v56.87H553.12Z" transform="translate(-48.42 -399.4)"/><path class="cls-2" d="M686.28,478.5V450.11l14.22,0v71.09H686.28V492.72H643.63v28.44H629.41V450.06h14.22V478.5Z" transform="translate(-48.42 -399.4)"/><path class="cls-2" d="M748.35,521.16H734.13V450.06h14.22Z" transform="translate(-48.42 -399.4)"/><path class="cls-2" d="M853.79,450.06l-30.85,71.09H807.48l-30.85-71.09h15.5l23.08,53.23,23.13-53.23Z" transform="translate(-48.42 -399.4)"/><path class="cls-2" d="M882,450.06h71.09v14.22H882Zm0,28.44h71.09v14.22H882Zm0,42.66V506.94h71.09v14.22Z" transform="translate(-48.42 -399.4)"/><path class="cls-3" d="M312,571.48l7.67-11.76h-6.95v-2.37h10.41V559l-7.65,11.76h7.72v2.37H312Z" transform="translate(-48.42 -399.4)"/><path class="cls-3" d="M330.94,557.34h9.51v2.37h-6.7v4h5.69v2.37h-5.69v4.67h6.95v2.37h-9.75Z" transform="translate(-48.42 -399.4)"/><path class="cls-3" d="M357.32,573.17l-3.41-6.2h-2.4v6.2H348.7V557.34H354c3.29,0,5.83,1.16,5.83,4.7a4.42,4.42,0,0,1-3.17,4.53l3.78,6.61Zm-5.81-8.42h2.23c2.18,0,3.34-.92,3.34-2.71s-1.16-2.44-3.34-2.44h-2.23Z" transform="translate(-48.42 -399.4)"/><path class="cls-3" d="M367.12,565.19c0-5.11,2.86-8.13,7-8.13s7,3,7,8.13-2.86,8.28-7,8.28S367.12,570.32,367.12,565.19Zm11.08,0c0-3.53-1.62-5.69-4.09-5.69s-4.11,2.15-4.11,5.69,1.62,5.83,4.11,5.83S378.2,568.74,378.2,565.19Z" transform="translate(-48.42 -399.4)"/><path class="cls-3" d="M388.08,566.06h5.76v2h-5.76Z" transform="translate(-48.42 -399.4)"/><path class="cls-3" d="M404.48,559.72h-4.57v-2.37h11.93v2.37h-4.55v13.46h-2.81Z" transform="translate(-48.42 -399.4)"/><path class="cls-3" d="M417.79,565.19c0-5.11,2.86-8.13,7-8.13s7,3,7,8.13-2.86,8.28-7,8.28S417.79,570.32,417.79,565.19Zm11.08,0c0-3.53-1.62-5.69-4.09-5.69s-4.11,2.15-4.11,5.69,1.62,5.83,4.11,5.83S428.88,568.74,428.88,565.19Z" transform="translate(-48.42 -399.4)"/><path class="cls-3" d="M438.75,566.06h5.76v2h-5.76Z" transform="translate(-48.42 -399.4)"/><path class="cls-3" d="M452.35,557.34h2.81V570.8h6.56v2.37h-9.37Z" transform="translate(-48.42 -399.4)"/><path class="cls-3" d="M467.67,565.19c0-5.11,2.86-8.13,7-8.13s7,3,7,8.13-2.86,8.28-7,8.28S467.67,570.32,467.67,565.19Zm11.08,0c0-3.53-1.62-5.69-4.09-5.69s-4.11,2.15-4.11,5.69,1.62,5.83,4.11,5.83S478.75,568.74,478.75,565.19Z" transform="translate(-48.42 -399.4)"/><path class="cls-3" d="M487.9,557.34h2.9l1.36,8c.27,1.69.53,3.39.8,5.06h.1c.31-1.67.68-3.39,1-5.06l2-8h2.42l2,8c.34,1.65.7,3.36,1,5.06h.1c.27-1.69.51-3.39.77-5.06l1.36-8h2.71l-3,15.83h-3.48l-2-8.33c-.27-1.23-.48-2.44-.7-3.65h-.1c-.22,1.21-.44,2.42-.7,3.65l-1.91,8.33H491Z" transform="translate(-48.42 -399.4)"/><path class="cls-3" d="M523.43,557.34h2.81V570.8h6.56v2.37h-9.37Z" transform="translate(-48.42 -399.4)"/><path class="cls-3" d="M547.67,568.89h-5.3l-1.23,4.28h-2.88l5.18-15.83h3.29l5.16,15.83h-3Zm-.63-2.2-.56-1.94c-.48-1.67-1-3.48-1.43-5.23H545c-.44,1.77-.9,3.56-1.4,5.23l-.56,1.94Z" transform="translate(-48.42 -399.4)"/><path class="cls-3" d="M560.84,559.72h-4.57v-2.37H568.2v2.37h-4.55v13.46h-2.81Z" transform="translate(-48.42 -399.4)"/><path class="cls-3" d="M575.63,557.34h9.51v2.37h-6.7v4h5.69v2.37h-5.69v4.67h6.95v2.37h-9.75Z" transform="translate(-48.42 -399.4)"/><path class="cls-3" d="M593.39,557.34h2.88l4.91,8.91,1.65,3.36h.1c-.15-1.62-.36-3.63-.36-5.4v-6.87h2.66v15.83h-2.88l-4.91-8.91-1.65-3.36h-.1c.15,1.67.36,3.58.36,5.35v6.92h-2.66Z" transform="translate(-48.42 -399.4)"/><path class="cls-3" d="M620.49,557.05a6.2,6.2,0,0,1,4.5,2l-1.55,1.74a4,4,0,0,0-2.93-1.31c-2.59,0-4.45,2.18-4.45,5.74s1.72,5.78,4.36,5.78a4.28,4.28,0,0,0,3.34-1.57l1.55,1.72a6.32,6.32,0,0,1-4.94,2.3c-4,0-7.19-2.9-7.19-8.16S616.43,557.05,620.49,557.05Z" transform="translate(-48.42 -399.4)"/><path class="cls-3" d="M635.11,567.29l-4.77-9.95h3l1.72,4c.46,1.19.92,2.27,1.4,3.48h.1c.51-1.21,1-2.3,1.48-3.48l1.72-4h2.93l-4.77,9.95v5.88h-2.81Z" transform="translate(-48.42 -399.4)"/><path class="cls-3" d="M659.16,557.34h3.07l2.86,7.79,1,3h.1l1-3,2.78-7.79h3.1v15.83h-2.64v-7.24c0-1.48.22-3.58.36-5h-.1l-1.28,3.61-2.74,7.19h-1.28l-2.73-7.19-1.26-3.61h-.1c.12,1.45.34,3.56.34,5v7.24h-2.57Z" transform="translate(-48.42 -399.4)"/><path class="cls-3" d="M681.11,565.19c0-5.11,2.86-8.13,7-8.13s7,3,7,8.13-2.86,8.28-7,8.28S681.11,570.32,681.11,565.19Zm11.08,0c0-3.53-1.62-5.69-4.09-5.69s-4.11,2.15-4.11,5.69,1.62,5.83,4.11,5.83S692.2,568.74,692.2,565.19Z" transform="translate(-48.42 -399.4)"/><path class="cls-3" d="M703,557.34h2.88l4.91,8.91,1.65,3.36h.1c-.15-1.62-.36-3.63-.36-5.4v-6.87h2.66v15.83H712l-4.91-8.91-1.65-3.36h-.1c.15,1.67.36,3.58.36,5.35v6.92H703Z" transform="translate(-48.42 -399.4)"/><path class="cls-3" d="M723.68,557.34h2.81v15.83h-2.81Z" transform="translate(-48.42 -399.4)"/><path class="cls-3" d="M738.47,559.72h-4.57v-2.37h11.93v2.37h-4.55v13.46h-2.81Z" transform="translate(-48.42 -399.4)"/><path class="cls-3" d="M751.78,565.19c0-5.11,2.86-8.13,7-8.13s7,3,7,8.13-2.86,8.28-7,8.28S751.78,570.32,751.78,565.19Zm11.08,0c0-3.53-1.62-5.69-4.09-5.69s-4.11,2.15-4.11,5.69,1.62,5.83,4.11,5.83S762.86,568.74,762.86,565.19Z" transform="translate(-48.42 -399.4)"/><path class="cls-3" d="M782.32,573.17,778.9,567h-2.4v6.2H773.7V557.34H779c3.29,0,5.83,1.16,5.83,4.7a4.42,4.42,0,0,1-3.17,4.53l3.78,6.61Zm-5.81-8.42h2.23c2.18,0,3.34-.92,3.34-2.71s-1.16-2.44-3.34-2.44h-2.23Z" transform="translate(-48.42 -399.4)"/><path class="cls-3" d="M793,557.34h2.81v15.83H793Z" transform="translate(-48.42 -399.4)"/><path class="cls-3" d="M804.56,557.34h2.88l4.91,8.91,1.65,3.36h.1c-.15-1.62-.36-3.63-.36-5.4v-6.87h2.66v15.83h-2.88l-4.91-8.91L807,560.9h-.1c.15,1.67.36,3.58.36,5.35v6.92h-2.66Z" transform="translate(-48.42 -399.4)"/><path class="cls-3" d="M831.9,557.05a6.42,6.42,0,0,1,4.72,2l-1.55,1.74a4.13,4.13,0,0,0-3.15-1.31c-2.81,0-4.69,2.18-4.69,5.74s1.69,5.78,4.86,5.78a3.47,3.47,0,0,0,2.25-.7V566.9h-3v-2.3h5.49v7a7.66,7.66,0,0,1-5.11,1.89c-4.21,0-7.41-2.9-7.41-8.16S827.64,557.05,831.9,557.05Z" transform="translate(-48.42 -399.4)"/><path class="cls-3" d="M855.47,569.23a6.3,6.3,0,0,0,4.14,1.79c1.77,0,2.76-.8,2.76-2s-1-1.72-2.47-2.32l-2.15-.94a4.53,4.53,0,0,1-3.19-4.21c0-2.52,2.23-4.45,5.3-4.45a7,7,0,0,1,4.89,2l-1.45,1.79a5.11,5.11,0,0,0-3.44-1.35c-1.5,0-2.47.7-2.47,1.86s1.21,1.69,2.52,2.23l2.13.9c1.89.8,3.19,2,3.19,4.28,0,2.57-2.13,4.69-5.69,4.69a8.14,8.14,0,0,1-5.69-2.32Z" transform="translate(-48.42 -399.4)"/><path class="cls-3" d="M875.27,567.29l-4.77-9.95h3l1.72,4c.46,1.19.92,2.27,1.4,3.48h.1c.51-1.21,1-2.3,1.48-3.48l1.72-4h2.93l-4.77,9.95v5.88h-2.81Z" transform="translate(-48.42 -399.4)"/><path class="cls-3" d="M889.62,569.23a6.3,6.3,0,0,0,4.14,1.79c1.77,0,2.76-.8,2.76-2s-1-1.72-2.47-2.32l-2.15-.94a4.53,4.53,0,0,1-3.19-4.21c0-2.52,2.23-4.45,5.3-4.45a7,7,0,0,1,4.89,2l-1.45,1.79A5.11,5.11,0,0,0,894,559.5c-1.5,0-2.47.7-2.47,1.86s1.21,1.69,2.52,2.23l2.13.9c1.89.8,3.19,2,3.19,4.28,0,2.57-2.13,4.69-5.69,4.69a8.14,8.14,0,0,1-5.69-2.32Z" transform="translate(-48.42 -399.4)"/><path class="cls-3" d="M909.75,559.72h-4.57v-2.37h11.93v2.37h-4.55v13.46h-2.81Z" transform="translate(-48.42 -399.4)"/><path class="cls-3" d="M924.54,557.34H934v2.37h-6.7v4H933v2.37h-5.69v4.67h6.95v2.37h-9.75Z" transform="translate(-48.42 -399.4)"/><path class="cls-3" d="M942.3,557.34h3.07l2.86,7.79,1,3h.1l1-3,2.78-7.79h3.1v15.83h-2.64v-7.24c0-1.48.22-3.58.36-5h-.1l-1.28,3.61-2.74,7.19h-1.28l-2.73-7.19-1.26-3.61h-.1c.12,1.45.34,3.56.34,5v7.24H942.3Z" transform="translate(-48.42 -399.4)"/></svg>